<?xml version="1.0" encoding="utf-8"?>
<!-- Generator: Adobe Illustrator 26.0.3, SVG Export Plug-In . SVG Version: 6.00 Build 0)  -->
<svg version="1.0" id="Layer_1" xmlns="http://www.w3.org/2000/svg" xmlns:xlink="http://www.w3.org/1999/xlink" x="0px" y="0px"
	 viewBox="0 0 642 424.7" style="enable-background:new 0 0 642 424.7;" xml:space="preserve">
<style type="text/css">
	.st0{clip-path:url(#SVGID_00000174597585573939683960000008172968833790735793_);}
</style>
<polygon points="114.1,197.5 109.8,216.9 109.5,216.9 105.4,197.5 94.2,197.5 90.2,216.9 90.1,216.9 85.4,197.5 73,197.5 
	82.8,228.9 95,228.9 99.7,209.6 99.8,209.6 104.3,228.9 116.6,228.9 126.6,197.5 "/>
<g>
	<defs>
		<rect id="SVGID_1_" x="73" y="185.7" width="496" height="53.3"/>
	</defs>
	<clipPath id="SVGID_00000013162493745250131930000004176995758164787109_">
		<use xlink:href="#SVGID_1_"  style="overflow:visible;"/>
	</clipPath>
	<g style="clip-path:url(#SVGID_00000013162493745250131930000004176995758164787109_);">
		<path d="M171.4,215.9c0-12.2-5.4-19.1-17.8-19.1c-9.9,0-16.5,7.4-16.5,16.6c0,10.4,7.6,16.4,17.6,16.4c7.1,0,13.7-3.1,16.1-9.9
			h-11.2c-1,1.5-3.1,2.2-5,2.2c-3.7,0-5.8-2.5-6.1-6.1L171.4,215.9z M148.5,209.6c0.5-3.4,2.6-5.2,6.2-5.2c2.8-0.1,5.2,2.1,5.3,5
			c0,0.1,0,0.2,0,0.3H148.5z"/>
		<path d="M199.9,197.5h6.4v7.4h-6.4v10.9c0,2.9,0.7,4.2,3.7,4.2c0.9,0,1.8-0.1,2.7-0.2v9.1c-2.4,0-5.1,0.4-7.7,0.4
			c-5.1,0-10.7-0.8-10.7-9.4v-15h-5.3v-7.4h5.3v-9.5h12L199.9,197.5z"/>
		<path d="M219.1,185.7h12v15.2h0.1c2.1-2.4,4.7-4.2,9.8-4.2c5.6,0,10.8,3.4,10.8,10.6v21.5h-12v-16.4c0-3.6-0.4-6.2-3.9-6.2
			c-2.1,0-4.8,1-4.8,6v16.5h-12L219.1,185.7z"/>
		<path d="M300.4,215.9c0-12.2-5.4-19.1-17.8-19.1c-9.9,0-16.5,7.4-16.5,16.6c0,10.4,7.5,16.4,17.6,16.4c7.1,0,13.7-3.1,16.1-9.9
			h-11.2c-1,1.5-3.1,2.2-5,2.2c-3.8,0-5.8-2.5-6.1-6.1L300.4,215.9z M277.5,209.6c0.5-3.4,2.6-5.2,6.2-5.2c2.8-0.1,5.2,2.2,5.2,5
			c0,0.1,0,0.1,0,0.2H277.5z"/>
		<path d="M314.4,197.5h11.5v5h0.1c1.9-3.7,4.5-5.8,8.8-5.8c1.2,0,2.4,0.2,3.5,0.5v10.6c-1.5-0.6-3.1-0.8-4.7-0.8
			c-4.7,0-7.2,2.8-7.2,9.5v12.4h-12L314.4,197.5z"/>
		<path d="M368.4,206.6c-0.1-1-0.6-1.8-1.4-2.4c-0.8-0.6-1.7-0.9-2.7-0.9c-1.7,0-3.6,0.4-3.6,2.4c0,0.9,0.7,1.3,1.4,1.6
			c2,0.9,6.5,1.1,10.5,2.4s7.5,3.6,7.5,8.8c0,8.7-8.3,11-15.9,11c-7.4,0-15.5-3-15.6-11H360c0.1,1.1,0.6,2.1,1.4,2.8
			c0.9,0.7,2.1,1,3.2,0.9c1.6,0,4-0.6,4-2.4s-1-2.4-6.6-3.3c-9.1-1.6-12.8-4.5-12.8-9.8c0-7.9,8.5-10,14.8-10
			c6.8,0,14.9,1.9,15.2,9.9L368.4,206.6z"/>
		<path d="M394,239h12v-13.6h0.1c2,2.7,5.2,4.3,8.6,4.2c10.5,0,13.3-8.9,13.3-16.3c0-7.8-4.3-16.6-13.2-16.6c-5.9,0-7.7,2.2-9.2,4.2
			h-0.1v-3.4H394V239z M405.5,213.2c0-3.8,1-7.8,5.2-7.8s5.3,4,5.3,7.8s-1,7.7-5.3,7.7S405.5,217,405.5,213.2"/>
		<path d="M475,213.2c0-8.7-5.3-16.4-17.1-16.4s-17.1,7.7-17.1,16.4c0,8.7,5.3,16.5,17.1,16.5S475,221.9,475,213.2 M463,213.2
			c0,3.3-0.6,7.8-5.1,7.8s-5.1-4.5-5.1-7.8s0.6-7.7,5.1-7.7S463,209.8,463,213.2"/>
		<path d="M522.2,213.2c0-8.7-5.3-16.4-17.1-16.4s-17.1,7.7-17.1,16.4s5.3,16.5,17.1,16.5S522.2,221.9,522.2,213.2 M510.2,213.2
			c0,3.3-0.6,7.8-5.1,7.8s-5.1-4.5-5.1-7.8s0.6-7.7,5.1-7.7S510.2,209.8,510.2,213.2"/>
		<path d="M536.4,197.5h11.5v4h0.1c2.2-3.1,5.4-4.8,10.2-4.8c5.6,0,10.8,3.4,10.8,10.6v21.5h-12v-16.5c0-3.6-0.4-6.2-3.9-6.2
			c-2,0-4.8,1-4.8,6v16.5h-12L536.4,197.5z"/>
	</g>
</g>
</svg>
